<svg xmlns="http://www.w3.org/2000/svg" viewBox="0 0 1073 1466" role="img" aria-labelledby="title desc">
  <title id="title">Energy Flow Builder Card preview with exact example paths</title>
  <desc id="desc">Preview image showing the Energy Flow Builder Card with the exact SVG flow paths used in the example configuration.</desc>
  <defs>
    <linearGradient id="sky" x1="0" x2="0" y1="0" y2="1"><stop offset="0" stop-color="#c9dcf1"/><stop offset=".55" stop-color="#eef5fb"/><stop offset="1" stop-color="#d9dde0"/></linearGradient>
    <filter id="shadow" x="-30%" y="-30%" width="160%" height="160%"><feDropShadow dx="0" dy="16" stdDeviation="16" flood-color="#0f172a" flood-opacity=".28"/></filter>
    <filter id="glow" filterUnits="userSpaceOnUse" x="0" y="0" width="1073" height="1466"><feGaussianBlur stdDeviation="7.5" result="wideGlow"/><feColorMatrix in="wideGlow" type="matrix" values="0 0 0 0 0.09 0 0 0 0 0.78 0 0 0 0 1 0 0 0 .95 0"/><feGaussianBlur in="SourceGraphic" stdDeviation="2.2" result="coreGlow"/><feMerge><feMergeNode in="wideGlow"/><feMergeNode in="coreGlow"/><feMergeNode in="SourceGraphic"/></feMerge></filter>
  </defs>
  <rect width="1073" height="1466" fill="url(#sky)"/><circle cx="948" cy="142" r="70" fill="#fff4c7"/>
  <path d="M0 720 520 300 1073 720v746H0Z" fill="#f8f4ea"/><path d="M0 725 520 290 1073 725" fill="none" stroke="#111827" stroke-width="44" stroke-linecap="round" stroke-linejoin="round"/>
  <path d="M110 640 290 425 705 425 610 640Z" fill="#172033" stroke="#f8fafc" stroke-width="7" stroke-linejoin="round"/><g stroke="#95b4d8" stroke-width="4" opacity=".72"><path d="M150 640 330 425M240 640 420 425M330 640 510 425M420 640 600 425"/><path d="M165 505h505M130 575h505"/></g>
  <rect x="735" y="615" width="150" height="410" rx="12" fill="#ffd88c" stroke="#1f2937" stroke-width="12"/><path d="M810 615v410M735 820h150" stroke="#1f2937" stroke-width="10"/>
  <rect x="90" y="800" width="360" height="250" fill="#f7c97f" stroke="#1f2937" stroke-width="10"/><rect x="600" y="940" width="115" height="220" rx="16" fill="#e8eef2" stroke="#64748b" stroke-width="7"/><rect x="908" y="865" width="125" height="220" rx="8" fill="#1f2937"/><circle cx="970" cy="975" r="52" fill="#111827" stroke="#475569" stroke-width="8"/><rect x="0" y="1085" width="1073" height="381" fill="#d1d5db" opacity=".72"/>
  <g fill="none" stroke-linecap="round" stroke-linejoin="round"><path d="M600 500 V1100" stroke="#33bde7" stroke-width="22" opacity=".35"/><path d="M600 1100 H820 V675" stroke="#33bde7" stroke-width="22" opacity=".35"/><path d="M600 1100 H200" stroke="#33bde7" stroke-width="20" opacity=".32"/><path d="M600 1100 H950 V1050" stroke="#33bde7" stroke-width="20" opacity=".32"/><path d="M600 1100 V1300 H900" stroke="#33bde7" stroke-width="26" opacity=".38"/><path d="M600 500 V1100" stroke="#14b8ff" stroke-width="10" stroke-dasharray="35 44" filter="url(#glow)"/><path d="M600 1100 H820 V675" stroke="#22c55e" stroke-width="10" stroke-dasharray="35 44" filter="url(#glow)"/><path d="M600 1100 H200" stroke="#14b8ff" stroke-width="9" stroke-dasharray="30 44" filter="url(#glow)"/><path d="M600 1100 H950 V1050" stroke="#14b8ff" stroke-width="9" stroke-dasharray="30 44" filter="url(#glow)"/><path d="M600 1100 V1300 H900" stroke="#08aee0" stroke-width="12" stroke-dasharray="38 42" filter="url(#glow)"/></g>
  <g fill="#14b8ff" stroke="#fff" stroke-width="3"><circle cx="600" cy="650" r="10"/><circle cx="600" cy="875" r="13"/><circle cx="600" cy="1045" r="10"/><circle cx="450" cy="1100" r="10"/><circle cx="265" cy="1100" r="13"/><circle cx="735" cy="1100" r="10"/><circle cx="910" cy="1100" r="13"/><circle cx="600" cy="1245" r="13"/><circle cx="785" cy="1300" r="10"/></g><circle cx="820" cy="900" r="12" fill="#22c55e" stroke="#fff" stroke-width="3"/><circle cx="820" cy="720" r="10" fill="#22c55e" stroke="#fff" stroke-width="3"/>
  <g font-family="Inter, ui-sans-serif, system-ui, -apple-system, BlinkMacSystemFont, 'Segoe UI', sans-serif"><g transform="translate(28 30)" filter="url(#shadow)"><rect width="500" height="86" rx="28" fill="#fff" opacity=".94"/><text x="30" y="39" fill="#0f172a" font-size="28" font-weight="800">Energy Flow Builder Card</text><text x="30" y="68" fill="#475569" font-size="17">Preview mit den echten Linienpfaden aus dem Beispiel</text></g><g transform="translate(385 330)" filter="url(#shadow)"><rect width="280" height="112" rx="20" fill="#fff" opacity=".94"/><rect width="8" height="112" rx="4" fill="#14b8ff"/><text x="24" y="42" fill="#4b5f73" font-size="22" font-weight="800">Solar</text><text x="24" y="78" fill="#0f172a" font-size="31" font-weight="900">5.2 kW</text><text x="24" y="101" fill="#64748b" font-size="17">Erzeugt</text></g><g transform="translate(760 520)" filter="url(#shadow)"><rect width="280" height="112" rx="20" fill="#fff" opacity=".94"/><rect width="8" height="112" rx="4" fill="#22c55e"/><text x="24" y="42" fill="#4b5f73" font-size="22" font-weight="800">Haus</text><text x="24" y="78" fill="#0f172a" font-size="31" font-weight="900">1.8 kW</text><text x="24" y="101" fill="#64748b" font-size="17">Verbrauch</text></g><g transform="translate(42 1124)" filter="url(#shadow)"><rect width="280" height="112" rx="20" fill="#fff" opacity=".94"/><rect width="8" height="112" rx="4" fill="#14b8ff"/><text x="24" y="42" fill="#4b5f73" font-size="22" font-weight="800">Auto</text><text x="24" y="78" fill="#0f172a" font-size="31" font-weight="900">3.1 kW</text><text x="24" y="101" fill="#64748b" font-size="17">Verbrauch</text></g><g transform="translate(385 1124)" filter="url(#shadow)"><rect width="280" height="112" rx="20" fill="#fff" opacity=".94"/><rect width="8" height="112" rx="4" fill="#22c55e"/><text x="24" y="42" fill="#4b5f73" font-size="22" font-weight="800">Akku</text><text x="24" y="78" fill="#0f172a" font-size="31" font-weight="900">82 %</text><text x="24" y="101" fill="#64748b" font-size="17">Laedt</text></g><g transform="translate(760 900)" filter="url(#shadow)"><rect width="280" height="112" rx="20" fill="#fff" opacity=".94"/><rect width="8" height="112" rx="4" fill="#14b8ff"/><text x="24" y="42" fill="#4b5f73" font-size="22" font-weight="800">Heizung</text><text x="24" y="78" fill="#0f172a" font-size="31" font-weight="900">0.7 kW</text><text x="24" y="101" fill="#64748b" font-size="17">Verbrauch</text></g><g transform="translate(760 1248)" filter="url(#shadow)"><rect width="280" height="112" rx="20" fill="#fff" opacity=".94"/><rect width="8" height="112" rx="4" fill="#08aee0"/><text x="24" y="42" fill="#4b5f73" font-size="22" font-weight="800">Netz</text><text x="24" y="78" fill="#0f172a" font-size="31" font-weight="900">+0.4 kW</text><text x="24" y="101" fill="#64748b" font-size="17">Einspeisung</text></g></g>
</svg>
